<svg width="60" height="60" viewBox="0 0 60 60" fill="none" xmlns="http://www.w3.org/2000/svg">
<rect width="60" height="60" fill="#01668B"/>
<path d="M41.9644 28.174C41.749 28.0708 41.5303 27.9715 41.3087 27.8763C40.9227 20.7652 37.037 16.694 30.5125 16.6523C30.483 16.6522 30.4536 16.6522 30.424 16.6522C26.5215 16.6522 23.2759 18.3179 21.2782 21.3491L24.8665 23.8106C26.3588 21.5464 28.7009 21.0637 30.4257 21.0637C30.4457 21.0637 30.4657 21.0637 30.4854 21.0639C32.6337 21.0776 34.2548 21.7022 35.304 22.9203C36.0675 23.8071 36.5782 25.0326 36.8311 26.5791C34.9264 26.2554 32.8665 26.1559 30.6644 26.2821C24.4612 26.6394 20.4733 30.2573 20.7411 35.2844C20.877 37.8344 22.1474 40.0281 24.318 41.4612C26.1533 42.6727 28.517 43.2651 30.9736 43.131C34.2178 42.9531 36.7628 41.7154 38.5383 39.4521C39.8868 37.7333 40.7396 35.506 41.1162 32.6995C42.6623 33.6326 43.8081 34.8604 44.4409 36.3365C45.517 38.8456 45.5798 42.9687 42.2154 46.3302C39.2678 49.275 35.7245 50.549 30.3697 50.5883C24.4298 50.5443 19.9375 48.6393 17.0168 44.9263C14.2817 41.4495 12.8682 36.4276 12.8155 30C12.8682 23.5723 14.2817 18.5504 17.0168 15.0736C19.9375 11.3607 24.4297 9.45573 30.3696 9.41159C36.3527 9.45607 40.9232 11.3702 43.9558 15.101C45.4428 16.9306 46.5639 19.2315 47.3029 21.9141L51.5079 20.7922C50.612 17.4902 49.2024 14.6447 47.2842 12.2849C43.3964 7.50174 37.7105 5.05082 30.3843 5H30.355C23.0437 5.05064 17.4214 7.51089 13.6444 12.3123C10.2834 16.585 8.54965 22.5301 8.49139 29.9824L8.49121 30L8.49139 30.0176C8.54965 37.4698 10.2834 43.4151 13.6444 47.6878C17.4214 52.4891 23.0437 54.9495 30.355 55H30.3843C36.8844 54.9549 41.4662 53.2531 45.2407 49.482C50.179 44.5484 50.0303 38.3643 48.4027 34.568C47.235 31.8456 45.0087 29.6344 41.9644 28.174ZM30.7413 38.7258C28.0226 38.8789 25.1981 37.6586 25.0588 35.0448C24.9556 33.1068 26.438 30.9443 30.9082 30.6867C31.4201 30.6571 31.9225 30.6427 32.416 30.6427C34.0396 30.6427 35.5587 30.8004 36.9396 31.1023C36.4245 37.5352 33.4032 38.5797 30.7413 38.7258Z" fill="#F9F9F9"/>
</svg>
