<svg width="60" height="60" viewBox="0 0 60 60" fill="none" xmlns="http://www.w3.org/2000/svg">
<rect width="60" height="60" fill="#01668B"/>
<path d="M45.255 16.5867C44.9386 16.4232 44.6306 16.2439 44.3321 16.0496C43.4642 15.4758 42.6685 14.7998 41.962 14.0359C40.1944 12.0135 39.5343 9.96172 39.2911 8.52519H39.3009C39.0978 7.33281 39.1817 6.56133 39.1944 6.56133H31.1437V37.6922C31.1437 38.1102 31.1437 38.5232 31.1261 38.9314C31.1261 38.9822 31.1212 39.0291 31.1183 39.0838C31.1183 39.1062 31.1183 39.1297 31.1134 39.1531V39.1707C31.0285 40.2877 30.6705 41.3667 30.0707 42.3128C29.471 43.2589 28.6479 44.0431 27.6739 44.5965C26.6588 45.174 25.5108 45.4769 24.3429 45.4754C20.5919 45.4754 17.5519 42.4168 17.5519 38.6395C17.5519 34.8621 20.5919 31.8035 24.3429 31.8035C25.0529 31.8029 25.7586 31.9146 26.4337 32.1346L26.4435 23.9373C24.394 23.6726 22.3119 23.8354 20.3286 24.4157C18.3452 24.9959 16.5037 25.9808 14.92 27.3084C13.5324 28.5141 12.3658 29.9526 11.4728 31.5594C11.1329 32.1453 9.8507 34.4998 9.69542 38.3211C9.59777 40.49 10.2491 42.7371 10.5597 43.6658V43.6853C10.755 44.2322 11.5118 46.0984 12.7452 47.6717C13.7398 48.9337 14.9148 50.0422 16.2325 50.9617V50.9422L16.2521 50.9617C20.1495 53.6102 24.4708 53.4363 24.4708 53.4363C25.2189 53.4061 27.7247 53.4363 30.5704 52.0877C33.7267 50.5926 35.5235 48.365 35.5235 48.365C36.6715 47.0341 37.5843 45.5172 38.2228 43.8797C38.9513 41.9646 39.1944 39.6678 39.1944 38.7498V22.2342C39.2921 22.2928 40.5929 23.1531 40.5929 23.1531C40.5929 23.1531 42.4669 24.3543 45.3907 25.1365C47.4884 25.6932 50.3146 25.8103 50.3146 25.8103V17.8182C49.3243 17.9256 47.3136 17.6131 45.255 16.5867Z" fill="#F9F9F9"/>
</svg>
