<svg width="60" height="60" viewBox="0 0 60 60" fill="none" xmlns="http://www.w3.org/2000/svg">
<rect width="60" height="60" fill="#01668B"/>
<path d="M39.1143 11.7705C41.5295 11.7777 43.8439 12.7404 45.5517 14.4483C47.2596 16.1561 48.2223 18.4705 48.2295 20.8857V39.1143C48.2223 41.5295 47.2596 43.8439 45.5517 45.5517C43.8439 47.2596 41.5295 48.2223 39.1143 48.2295H20.8857C18.4705 48.2223 16.1561 47.2596 14.4483 45.5517C12.7404 43.8439 11.7777 41.5295 11.7705 39.1143V20.8857C11.7777 18.4705 12.7404 16.1561 14.4483 14.4483C16.1561 12.7404 18.4705 11.7777 20.8857 11.7705H39.1143ZM39.1143 8.125H20.8857C13.8672 8.125 8.125 13.8672 8.125 20.8857V39.1143C8.125 46.1328 13.8672 51.875 20.8857 51.875H39.1143C46.1328 51.875 51.875 46.1328 51.875 39.1143V20.8857C51.875 13.8672 46.1328 8.125 39.1143 8.125Z" fill="#F9F9F9"/>
<path d="M44.2184 19.0629C43.5694 19.0629 42.935 18.8705 42.3954 18.5099C41.8558 18.1494 41.4352 17.6369 41.1869 17.0373C40.9385 16.4378 40.8736 15.778 41.0002 15.1415C41.1268 14.505 41.4393 13.9203 41.8982 13.4615C42.3571 13.0026 42.9417 12.6901 43.5782 12.5634C44.2147 12.4368 44.8745 12.5018 45.474 12.7502C46.0736 12.9985 46.5861 13.4191 46.9466 13.9587C47.3072 14.4983 47.4996 15.1327 47.4996 15.7816C47.5005 16.2128 47.4163 16.6399 47.2517 17.0384C47.0872 17.4369 46.8455 17.799 46.5406 18.1039C46.2358 18.4088 45.8737 18.6504 45.4751 18.815C45.0766 18.9796 44.6495 19.0638 44.2184 19.0629ZM30 21.2496C31.7307 21.2496 33.4225 21.7628 34.8615 22.7243C36.3005 23.6858 37.422 25.0525 38.0843 26.6514C38.7466 28.2503 38.9199 30.0097 38.5823 31.7071C38.2446 33.4045 37.4112 34.9637 36.1875 36.1875C34.9637 37.4112 33.4045 38.2446 31.7071 38.5823C30.0097 38.9199 28.2503 38.7466 26.6514 38.0843C25.0525 37.422 23.6858 36.3005 22.7243 34.8615C21.7628 33.4225 21.2496 31.7307 21.2496 30C21.2521 27.68 22.1748 25.4558 23.8153 23.8153C25.4558 22.1748 27.68 21.2521 30 21.2496ZM30 16.875C27.4041 16.875 24.8665 17.6448 22.7081 19.087C20.5498 20.5292 18.8675 22.579 17.8741 24.9773C16.8807 27.3756 16.6208 30.0146 17.1272 32.5606C17.6336 35.1066 18.8837 37.4452 20.7192 39.2808C22.5548 41.1163 24.8934 42.3664 27.4394 42.8728C29.9854 43.3792 32.6244 43.1193 35.0227 42.1259C37.421 41.1325 39.4709 39.4503 40.913 37.2919C42.3552 35.1335 43.125 32.5959 43.125 30C43.125 26.519 41.7422 23.1806 39.2808 20.7192C36.8194 18.2578 33.481 16.875 30 16.875Z" fill="#F9F9F9"/>
</svg>
