<svg width="185" height="111" viewBox="0 0 185 111" fill="none" xmlns="http://www.w3.org/2000/svg">
<g clip-path="url(#clip0_228_924)">
<path d="M30 -18H155V166H30V-18Z" fill="#F9FAFB"/>
<path d="M52.0024 36.3375C58.665 35.737 65.1086 39.3599 69.1424 44.5C77.0359 54.5585 80.598 68.077 69.4833 77.2649C76.2408 80.7721 80.3086 78.7337 86.1689 74.9326C87.2736 76.0238 88.2286 76.9237 89.0015 78.28C86.7141 80.3981 84.2306 81.7343 81.3732 82.9003C74.332 84.83 70.376 83.9083 64.293 80.0036C63.272 80.2321 62.2403 80.4095 61.2017 80.5356C47.0604 82.2768 37.5704 69.3355 35.1777 56.5267C34.3679 52.1921 35.8735 46.6264 38.6757 43.203C42.1185 38.9974 46.618 36.9677 52.0024 36.3375Z" fill="#181A1B"/>
<path d="M51.1271 41.5333C65.3312 38.9963 81.7613 70.7241 60.9794 75.914L60.8825 75.9321C46.2468 78.569 29.7192 45.2796 51.1271 41.5333Z" fill="#F9FAFB"/>
<path d="M90.8149 14.7688C96.6221 14.6222 100.487 18.3705 100.133 24.1634C99.7599 30.253 94.215 33.22 90.2029 36.8332C93.5029 42.0556 96.8675 45.2497 101.418 49.1635C104.464 45.7863 106.172 40.0794 107.652 35.9935C109.35 36.0433 111.134 36.0407 112.839 36.063C110.857 42.0437 108.942 46.902 104.934 51.9776C106.932 53.3836 108.756 54.2442 110.938 55.302C114.421 56.8374 113.068 57.4753 111.768 60.5967C107.514 59.5618 105.351 58.1348 101.691 55.7322C101.375 55.9852 101.057 56.2355 100.736 56.4831C96.0997 60.0596 92.7572 61.1724 86.7092 60.6091C76.9614 59.7009 72.0615 49.7608 77.4954 41.5769C79.1244 39.1236 81.5461 37.4831 83.9273 35.6947C81.5094 30.1617 79.1658 23.9321 83.3811 18.4323C85.2173 16.0367 87.9128 15.0822 90.8149 14.7688Z" fill="#181A1B"/>
<path d="M86.0766 39.6523C86.4532 39.7445 87.4688 41.3258 87.7509 41.7335C90.6444 45.9146 94.3003 49.4441 98.0094 52.8763C96.2095 54.0969 94.5377 55.4009 92.4387 55.9777C86.4313 57.5003 79.8946 54.379 80.7341 47.2934C81.1283 43.967 83.5699 41.6381 86.0766 39.6523Z" fill="#F9FAFB"/>
<path d="M90.3552 18.8916C94.2118 18.6375 95.7226 20.5413 95.4623 24.4522C95.2479 27.6744 92.39 29.8015 90.0357 31.7075C89.3665 32.2093 88.7031 32.7189 88.0457 33.2361C86.3974 29.7843 84.6285 24.4797 87.0529 20.9916C87.8182 19.8675 89.0126 19.108 90.3552 18.8916Z" fill="#F9FAFB"/>
<path d="M145.103 57.7237L146.99 57.5625C147.628 59.1603 149.231 61.7627 149.637 63.2397C148.96 64.3599 143.03 69.5288 141.72 70.7435L124.826 86.5023C121.908 89.2229 118.612 92.0612 115.849 94.8946C114.808 93.1338 114.123 91.4489 113.144 89.7097C115.408 87.3482 118.942 84.3868 121.455 82.2492C122.138 81.683 122.93 80.8101 123.56 80.1557C121.563 75.4004 118.695 70.2948 116.549 65.4997C113.66 66.1983 106.018 66.9169 102.584 67.3592C101.64 65.7009 100.643 63.9734 99.9248 62.2107C101.378 62.1837 103.878 61.7902 105.408 61.6295L117.199 60.3942C120.278 60.0661 123.508 60.0104 126.519 59.6742C132.719 58.9819 138.898 58.3594 145.103 57.7237Z" fill="#181A1B"/>
<path d="M143.885 62.2437C143.82 62.6064 143.465 62.9462 143.175 63.1827C137.691 67.6584 132.532 72.4743 127.21 77.1331C126.444 75.9287 125.773 74.3668 125.164 73.0504C123.834 70.4033 122.545 67.7353 121.299 65.0473C121.724 65.0347 122.168 65.0037 122.591 64.9638C129.712 64.2921 136.785 63.0839 143.885 62.2437Z" fill="#F9FAFB"/>
</g>
<defs>
<clipPath id="clip0_228_924">
<rect width="125" height="91" fill="white" transform="translate(30 10)"/>
</clipPath>
</defs>
</svg>
