<svg width="24" height="24" viewBox="0 0 24 24" fill="none" xmlns="http://www.w3.org/2000/svg">
<path d="M17.5683 14.474L21.4453 17.2031C21.5595 17.2539 21.6846 17.2753 21.8091 17.2654C21.9337 17.2556 22.0539 17.2148 22.1586 17.1467C22.2634 17.0786 22.3495 16.9854 22.4092 16.8756C22.4688 16.7657 22.5 16.6428 22.5 16.5178V7.48217C22.5 7.3572 22.4688 7.23422 22.4092 7.12439C22.3495 7.01456 22.2634 6.92137 22.1586 6.85328C22.0539 6.78519 21.9337 6.74437 21.8091 6.73451C21.6846 6.72466 21.5595 6.74609 21.4453 6.79686L17.5683 9.52592C17.47 9.59512 17.3897 9.68695 17.3343 9.79365C17.279 9.90036 17.25 10.0188 17.25 10.139V13.8609C17.25 13.9811 17.279 14.0996 17.3343 14.2063C17.3897 14.313 17.47 14.4048 17.5683 14.474Z" stroke="#181A1B" stroke-width="2" stroke-linecap="round" stroke-linejoin="round"/>
<path d="M12.5625 18H3.9375C3.29161 17.9981 2.67269 17.7407 2.21598 17.284C1.75926 16.8273 1.50186 16.2084 1.5 15.5625V8.4375C1.50186 7.79161 1.75926 7.1727 2.21598 6.71598C2.67269 6.25926 3.29161 6.00186 3.9375 6H12.585C13.2249 6.00198 13.838 6.25705 14.2905 6.70952C14.743 7.16199 14.998 7.77511 15 8.415V15.5625C14.9981 16.2084 14.7407 16.8273 14.284 17.284C13.8273 17.7407 13.2084 17.9981 12.5625 18Z" stroke="#181A1B" stroke-width="2" stroke-miterlimit="10"/>
</svg>
