<svg width="52" height="52" viewBox="0 0 52 52" fill="none" xmlns="http://www.w3.org/2000/svg">
<rect width="52" height="52" fill="#F9FAFB"/>
<path d="M38.1874 33.375C37.1949 32.375 34.7911 30.9156 33.6249 30.3275C32.1061 29.5625 31.9811 29.5 30.7874 30.3869C29.9911 30.9788 29.4617 31.5075 28.5299 31.3088C27.598 31.11 25.573 29.9894 23.7999 28.2219C22.0267 26.4544 20.8411 24.3706 20.6417 23.4419C20.4424 22.5131 20.9799 21.99 21.5661 21.1919C22.3924 20.0669 22.3299 19.8794 21.6236 18.3606C21.073 17.1794 19.5711 14.7981 18.5674 13.8106C17.4936 12.75 17.4936 12.9375 16.8017 13.225C16.2385 13.462 15.6981 13.7501 15.1874 14.0856C14.1874 14.75 13.6324 15.3019 13.2442 16.1313C12.8561 16.9606 12.6817 18.905 14.6861 22.5463C16.6905 26.1875 18.0967 28.0494 21.0074 30.9519C23.918 33.8544 26.1561 35.415 29.428 37.25C33.4755 39.5169 35.028 39.075 35.8599 38.6875C36.6917 38.3 37.2461 37.75 37.9117 36.75C38.2482 36.2401 38.5369 35.7004 38.7742 35.1375C39.0624 34.4481 39.2499 34.4481 38.1874 33.375Z" stroke="#181A1B" stroke-width="2" stroke-miterlimit="10"/>
</svg>
