<svg width="32" height="32" viewBox="0 0 32 32" fill="none" xmlns="http://www.w3.org/2000/svg">
<path d="M0 16C0 7.16344 7.16344 0 16 0C24.8366 0 32 7.16344 32 16C32 24.8366 24.8366 32 16 32C7.16344 32 0 24.8366 0 16Z" fill="black"/>
<path d="M14.4984 14.3003V13.6774C14.285 13.6489 14.068 13.6311 13.844 13.6311C11.173 13.6276 9 15.8024 9 18.4792C9 20.1201 9.818 21.5724 11.0699 22.4516C10.2626 21.5867 9.76821 20.4227 9.76821 19.1484C9.76821 16.5108 11.8808 14.3608 14.4984 14.3003Z" fill="#25F4EE"/>
<path d="M14.6157 21.3624C15.8072 21.3624 16.7816 20.412 16.8243 19.2303L16.8279 8.66919H18.7555C18.7164 8.45206 18.695 8.22781 18.695 8H16.0632L16.0597 18.5611C16.017 19.7428 15.0425 20.6932 13.8511 20.6932C13.4812 20.6932 13.1327 20.6007 12.8232 20.4369C13.2216 20.9958 13.876 21.3624 14.6157 21.3624Z" fill="#25F4EE"/>
<path d="M22.3585 12.2536V11.6663C21.6223 11.6663 20.9394 11.4492 20.3633 11.0718C20.8754 11.6592 21.5689 12.0863 22.3585 12.2536Z" fill="#25F4EE"/>
<path d="M20.3627 11.0718C19.8008 10.4276 19.4629 9.58754 19.4629 8.66919H18.7588C18.9401 9.67297 19.5377 10.5344 20.3627 11.0718Z" fill="#FE2C55"/>
<path d="M13.8479 16.2616C12.628 16.2616 11.6357 17.2547 11.6357 18.4756C11.6357 19.3264 12.1194 20.0667 12.8236 20.4369C12.5604 20.0739 12.4039 19.6289 12.4039 19.1448C12.4039 17.9239 13.3962 16.9308 14.6161 16.9308C14.8437 16.9308 15.0642 16.9699 15.2705 17.034V14.3431C15.0571 14.3146 14.8402 14.2968 14.6161 14.2968C14.577 14.2968 14.5414 14.3003 14.5023 14.3003V16.3648C14.2925 16.3008 14.0755 16.2616 13.8479 16.2616Z" fill="#FE2C55"/>
<path d="M22.3587 12.2536V14.3003C20.993 14.3003 19.7269 13.8625 18.6955 13.1221V18.4792C18.6955 21.1524 16.5225 23.3308 13.8479 23.3308C12.8166 23.3308 11.8563 23.0033 11.0703 22.4516C11.9559 23.402 13.2184 24 14.6162 24C17.2871 24 19.4637 21.8251 19.4637 19.1484V13.7913C20.4951 14.5317 21.7612 14.9695 23.1269 14.9695V12.3355C22.8601 12.3355 22.6041 12.307 22.3587 12.2536Z" fill="#FE2C55"/>
<path d="M18.6954 18.4792V13.1221C19.7268 13.8625 20.9929 14.3003 22.3586 14.3003V12.2536C21.5691 12.0863 20.8755 11.6592 20.3634 11.0718C19.5383 10.5344 18.9444 9.67297 18.7558 8.66919H16.8282L16.8247 19.2302C16.782 20.412 15.8075 21.3624 14.6161 21.3624C13.8763 21.3624 13.2255 20.9958 12.82 20.4405C12.1158 20.0667 11.6322 19.3299 11.6322 18.4792C11.6322 17.2583 12.6244 16.2652 13.8443 16.2652C14.0719 16.2652 14.2924 16.3043 14.4987 16.3684V14.3039C11.8811 14.3608 9.76855 16.5108 9.76855 19.1484C9.76855 20.4227 10.2629 21.5831 11.0702 22.4516C11.8562 23.0033 12.8165 23.3308 13.8479 23.3308C16.5188 23.3308 18.6954 21.1524 18.6954 18.4792Z" fill="white"/>
</svg>
