<svg width="33" height="35" viewBox="0 0 33 35" fill="none" xmlns="http://www.w3.org/2000/svg">
<circle cx="16" cy="16" r="16" fill="#7161F7"/>
<path d="M15.221 5.78558C15.6806 5.7355 16.8212 5.76904 17.2962 5.77943C19.9092 5.83666 23.5264 6.37677 25.3858 8.357C27.2568 10.3497 27.6008 14.0548 27.4774 16.6909C27.3582 19.2405 27.1225 21.9052 25.1358 23.753C22.719 26.0009 18.1164 26.1452 14.9881 26.0314L14.6844 26.0067C14.0216 26.7092 13.4498 27.5037 12.7793 28.2045C12.4891 28.5079 12.1216 28.8507 11.6756 28.8537C11.498 28.8548 11.3331 28.7939 11.2066 28.668C10.685 28.1492 10.8639 26.1259 10.8678 25.3487C9.85298 25.1176 9.05089 24.6134 8.26633 23.973C6.41372 22.4608 5.74987 19.9721 5.62704 17.6505C5.47354 14.75 5.55258 10.7102 7.60479 8.42839C9.38021 6.45435 12.6967 5.94 15.221 5.78558Z" fill="#F1EEFC"/>
<path d="M11.5105 23.8848C11.5061 23.8808 11.5017 23.8768 11.4974 23.8728C11.0314 23.6564 10.5784 23.5232 10.1179 23.2709C7.34829 21.7538 7.13864 18.4102 7.20805 15.6038C7.25862 13.5591 7.42941 11.401 8.76481 9.73359C9.94791 8.24809 12.5196 7.61171 14.4052 7.44502C17.1659 7.20094 21.489 7.38025 23.7838 9.11271C25.0793 10.0907 25.6661 12.399 25.7931 13.9241C25.9427 15.7217 25.8963 18.6019 25.3325 20.2955C25.1212 20.9488 24.7887 21.5566 24.3522 22.0871C23.9646 22.5606 23.4859 22.9519 22.9444 23.2377C21.8655 23.8009 19.4947 24.2163 18.2592 24.3305C17.1887 24.4273 16.1124 24.4426 15.0395 24.3761C14.6477 24.9088 12.1842 27.9937 11.7437 28.0931C11.6885 28.1056 11.6183 28.1049 11.566 28.0814C11.4472 27.8983 11.4618 27.4568 11.4707 27.2315C11.5145 26.128 11.4465 24.9843 11.5105 23.8848Z" fill="#7161F7"/>
<path d="M11.5105 23.8848L11.5785 23.9131C11.5985 24.0507 11.5879 24.4008 11.596 24.5813C11.63 25.5115 11.6441 26.4424 11.6382 27.3732C11.6371 27.5595 11.5663 27.864 11.6047 27.9815L11.566 28.0814C11.4472 27.8982 11.4617 27.4567 11.4707 27.2315C11.5144 26.128 11.4465 24.9843 11.5105 23.8848Z" fill="#6151E8"/>
<path d="M12.3336 10.5379C12.4864 10.5321 12.6872 10.5582 12.8146 10.6693C13.5126 11.3224 14.3972 12.4566 14.6524 13.3627C14.8609 14.1031 13.3889 14.4431 13.5925 15.201C13.9023 16.3544 14.7188 17.4919 15.668 18.2017C16.009 18.4568 16.3803 18.6688 16.7735 18.8327C18.2331 19.4253 18.0497 18.1491 19.0415 17.9275C19.7596 17.9231 20.7481 18.7743 21.2756 19.1567C22.3263 19.9184 22.1827 20.3459 21.4507 21.2621C20.1217 22.7146 19.5097 22.157 17.9302 21.4191C14.3764 19.7588 11.9124 16.8238 10.5309 13.1953C10.3835 12.8081 10.3603 12.3718 10.5704 12.0041C10.9292 11.3764 11.6415 10.7561 12.3336 10.5379Z" fill="#F8F8F7"/>
<path d="M16.3787 9.89484C16.9741 9.88064 17.6762 9.98537 18.2431 10.1558C19.7176 10.6061 20.9553 11.6178 21.6888 12.9721C22.1332 13.8025 22.5023 15.2738 22.395 16.2711C22.3835 16.378 22.2698 16.4191 22.1816 16.461C21.7063 16.3525 21.8468 15.6699 21.7963 15.225C21.5406 12.9694 20.0106 11.1796 17.7996 10.6182C17.4093 10.5191 16.3624 10.5155 16.1434 10.2959C16.0488 10.0394 16.1421 9.95945 16.3787 9.89484Z" fill="#F8F8F7"/>
<path d="M16.7919 11.4238C17.7748 11.421 18.9113 11.8309 19.6338 12.4997C20.4749 13.2783 20.9007 14.4235 20.8587 15.5599C20.8526 15.7233 20.7978 15.7796 20.6791 15.873C20.5474 15.8468 20.5261 15.8372 20.4066 15.7804C20.2228 15.5982 20.3072 15.1277 20.2706 14.8698C20.0334 13.1965 18.7495 12.1574 17.105 11.9962C16.8846 11.9746 16.6338 11.9418 16.5923 11.6977C16.6419 11.5473 16.6719 11.5291 16.7919 11.4238Z" fill="#F8F8F7"/>
<path d="M17.1485 13.0074C18.1624 12.8478 19.1299 13.5751 19.3366 14.5549C19.3834 14.7765 19.4159 15.1241 19.2878 15.323C19.2307 15.3316 19.074 15.3589 19.03 15.3352C18.6918 15.0576 18.7891 14.5177 18.5244 14.0842C18.1684 13.5013 17.3008 13.7089 17.0584 13.3116C17.0467 13.1887 17.0943 13.1167 17.1485 13.0074Z" fill="#F8F8F7"/>
</svg>
